<svg width="34" height="48" viewBox="0 0 34 48" fill="none" xmlns="http://www.w3.org/2000/svg">
<path d="M16.9998 22.8333C15.4527 22.8333 13.969 22.2187 12.875 21.1248C11.7811 20.0308 11.1665 18.5471 11.1665 17C11.1665 15.4529 11.7811 13.9692 12.875 12.8752C13.969 11.7812 15.4527 11.1667 16.9998 11.1667C18.5469 11.1667 20.0307 11.7812 21.1246 12.8752C22.2186 13.9692 22.8332 15.4529 22.8332 17C22.8332 17.766 22.6823 18.5246 22.3891 19.2323C22.096 19.9401 21.6663 20.5831 21.1246 21.1248C20.583 21.6665 19.9399 22.0961 19.2322 22.3893C18.5244 22.6824 17.7659 22.8333 16.9998 22.8333ZM16.9998 0.666664C12.668 0.666664 8.51352 2.38749 5.45043 5.45059C2.38733 8.51368 0.666504 12.6681 0.666504 17C0.666504 29.25 16.9998 47.3333 16.9998 47.3333C16.9998 47.3333 33.3332 29.25 33.3332 17C33.3332 12.6681 31.6123 8.51368 28.5492 5.45059C25.4862 2.38749 21.3317 0.666664 16.9998 0.666664Z" fill="#FF5A5F"/>
</svg>
